<svg xmlns="http://www.w3.org/2000/svg" height="800" width="1200" viewBox="-140.325 -144.2 1216.15 865.2"><path d="M468.7 576.8c259.1-.4 466.9-129.8 466.8-288.1C935.4 129.1 727.4.1 468.3 0l.1 55.1c240.9.1 435.9 103.8 436 233.5.1 128.6-194.7 232.6-435.7 233zM467.6 0C209.5.2-.1 129.6 0 289.4.2 447.8 209.9 577 468 576.8h.7v-55.1h-.8C228.2 521.9 32.7 418 32.6 289.3c-.1-129.9 195.2-234 434.9-234.2h.8V0z" fill="#EC1C24" clip-rule="evenodd" fill-rule="evenodd"/><path fill="#EC1C24" clip-rule="evenodd" fill-rule="evenodd" d="M604.9 395.5l58.2-.1-.1-161h64.1l16.9 19.5v88.2l-68.5.1v53.2l97.6-.1h29.1l-.1-176.1-32.5-38.2-164.9.2zm-158.7.1l64.2-.1-.1-87h48.9l23.4-21.7-.1-105.6H518v67.1l-9.5 8.9-62.4.1zm-86.9-108.7l23.4 21.7 51.1-.1v-51.2l-9.5-8.9v-67.2l-65.1.2zM337 214.7l-28.5-33.4-73.5.1.1 52.4h46.7v38h-46.7l.1 33.5h47l-.1 38.1h-46.9v52.4l70.5-.1 31.4-21.7-.1-71.7-14.6-13.6 14.6-12.4zm-101.9-33.3l-101.8.1.2 214.3h55.1v-90.5l46.6-.1-.1-33.5h-46.7v-38h46.7zm.1 161.9v52.4h-34.3v-52.4z"/></svg>