<svg xmlns="http://www.w3.org/2000/svg" height="800" width="1200" viewBox="-58.8 -34.5275 509.6 207.165"><defs><clipPath id="a"><path clip-rule="evenodd" d="M28 235.59h214.36v58.668H28z"/></clipPath></defs><g clip-path="url(#a)" transform="translate(-122.305 -554.602) scale(2.3541)"><path d="M57.197 290.888c.25-.312.374-.687.374-1.061 0-.5-.187-.874-.5-1.248-.374-.437-.998-.624-1.747-.624h-3.37v6.116h1.061v-2.372h2.184l1.311 2.372h1.186l-1.436-2.497c.375-.187.687-.436.937-.686zm-1.685-.125h-2.497v-1.872h2.31c.436 0 .748.125.935.312.188.187.25.374.25.624s-.125.5-.312.686c-.187.125-.437.25-.686.25zm5.617.562h2.309v-.936h-2.31v-1.498h3.87v-.999h-4.93v6.117h5.18v-.937h-4.12zm10.86.811l-3.558-4.244h-.936v6.117h1.06v-4.182l3.558 4.182h.937v-6.117h-1.061zm5.929-4.244l-2.809 6.117h1.124l.686-1.623h2.934l.749 1.623h1.123l-2.809-6.117zm-.624 3.682l1.06-2.371h.063l1.061 2.371zm10.61.313c0 .436-.187.81-.5 1.06-.311.25-.686.375-1.185.375-.5 0-.874-.125-1.186-.374-.312-.25-.5-.625-.5-1.061v-3.932h-1.06v3.932c0 .748.25 1.31.749 1.747.499.437 1.185.624 1.934.624.812 0 1.436-.187 1.935-.624.5-.437.75-.999.75-1.747v-3.932h-1.062v3.932zm4.868-3.995h-1.06v6.117h4.805v-.937h-3.745zm4.244.998h2.434v5.119h1.061v-5.118h2.372v-.999h-5.867zm14.542 3.246l-3.495-4.244h-.936v6.117h1.061v-4.182l3.495 4.182h.936v-6.117h-1.06zm4.057-4.244h1.061v6.117h-1.06zm7.178 2.434c-1.186-.125-2.434 0-2.434-.811 0-.312.124-.5.374-.687.25-.125.562-.187.999-.187.499 0 .936.062 1.31.187.375.125.687.312.874.5l.624-.75c-.312-.249-.686-.436-1.186-.623-.499-.188-1.06-.25-1.622-.25-.312 0-.624.062-.874.062-.25.063-.562.188-.811.312-.25.125-.437.312-.625.562-.124.25-.25.562-.25.874 0 1.435 1.436 1.623 2.872 1.685.624.062 1.06.125 1.31.25.313.124.437.374.437.749 0 .312-.124.561-.437.749-.312.187-.686.25-1.185.25-.999 0-1.935-.375-2.747-1.124l-.624.749c.937.874 2.06 1.31 3.37 1.31.812 0 1.436-.187 1.935-.499.5-.312.75-.874.75-1.56.187-1.248-.937-1.623-2.06-1.748zm7.927 0c-1.187-.125-2.435 0-2.435-.811 0-.312.125-.5.375-.687.25-.125.561-.187.998-.187.5 0 .936.062 1.31.187.375.125.687.312.875.5l.624-.75c-.312-.249-.687-.436-1.186-.623-.5-.188-1.061-.25-1.623-.25-.312 0-.624.062-.874.062a4.43 4.43 0 00-.811.312c-.25.125-.437.312-.624.562-.125.25-.25.562-.25.874 0 1.435 1.436 1.623 2.871 1.685.624.062 1.061.125 1.31.25.313.124.438.374.438.749 0 .312-.125.561-.437.749-.312.187-.687.25-1.186.25-.999 0-1.935-.375-2.746-1.124l-.624.749c.936.874 2.06 1.31 3.37 1.31.811 0 1.436-.187 1.935-.499.5-.312.749-.874.749-1.56.187-1.248-.936-1.623-2.06-1.748zm46.31 0c-1.186-.125-2.434 0-2.434-.811 0-.312.124-.5.374-.687.25-.125.562-.187.999-.187.499 0 .936.062 1.31.187.375.125.687.312.874.5l.624-.75c-.312-.249-.686-.436-1.186-.623-.499-.188-1.06-.25-1.622-.25-.312 0-.624.062-.874.062-.25.063-.562.188-.812.312-.25.125-.436.312-.624.562-.124.25-.25.562-.25.874 0 1.435 1.436 1.623 2.872 1.685.624.062 1.06.125 1.31.25.312.124.437.374.437.749 0 .312-.125.561-.437.749-.312.187-.686.25-1.185.25-1 0-1.935-.375-2.747-1.124l-.624.749c.936.874 2.06 1.31 3.37 1.31.812 0 1.436-.187 1.935-.499.5-.312.75-.874.75-1.56.187-1.248-.937-1.623-2.06-1.748zm27.711 0c-1.186-.125-2.434 0-2.434-.811 0-.312.125-.5.374-.687.25-.125.562-.187.999-.187.5 0 .936.062 1.31.187.375.125.687.312.874.5l.625-.75c-.312-.249-.687-.436-1.186-.623-.5-.188-1.061-.25-1.623-.25-.312 0-.624.062-.874.062a4.43 4.43 0 00-.811.312c-.25.125-.437.312-.624.562-.125.25-.25.562-.25.874 0 1.435 1.436 1.623 2.871 1.685.624.062 1.061.125 1.31.25.313.124.438.374.438.749 0 .312-.125.561-.437.749-.312.187-.687.25-1.186.25-.999 0-1.935-.375-2.746-1.124l-.624.749c.936.874 2.06 1.31 3.37 1.31.811 0 1.435-.187 1.935-.499.499-.312.749-.874.749-1.56.187-1.248-.937-1.623-2.06-1.748zm-67.593-2.434l-2.809 6.117h1.124l.749-1.623h2.933l.749 1.623h1.123l-2.808-6.117zm-.624 3.682l1.06-2.371h.063l1.061 2.371zm11.046.562l-3.557-4.244h-.936v6.117h1.061v-4.182l3.558 4.182h.936v-6.117h-1.061zm9.55-.624l-2.185-3.62h-1.06v6.117h.998v-4.12h.062l2.06 3.433h.125l2.06-3.433h.062v4.12h.999v-6.117h-.999l-2.122 3.62zm6.054-3.62h1.061v6.117h-1.061zm2.933.998h2.434v5.119h1.062v-5.118h2.371v-.999h-5.867zm19.723 2.997c0 .436-.187.81-.5 1.06-.311.25-.686.375-1.185.375-.5 0-.874-.125-1.186-.374-.312-.25-.5-.625-.5-1.061v-3.932h-1.06v3.932c0 .748.25 1.31.749 1.747.499.437 1.185.624 1.934.624.812 0 1.436-.187 1.935-.624.5-.437.75-.999.75-1.747v-3.932h-1.062v3.932zm8.613-1.249c.25-.062.437-.25.562-.499.124-.25.25-.5.25-.749 0-.374-.126-.687-.438-.936-.374-.375-.873-.562-1.498-.562h-3.682v6.117h3.745c.686 0 1.186-.188 1.56-.5.375-.374.562-.811.562-1.31 0-.375-.125-.687-.312-.999-.125-.25-.437-.437-.75-.562zm-3.745-1.747h2.559c.312 0 .5.062.687.25a.709.709 0 01.187.499c0 .25-.063.437-.25.624a.953.953 0 01-.624.25h-2.559zm3.495 3.932a1.034 1.034 0 01-.749.312h-2.746v-1.81h2.746c.312 0 .562.125.75.312.186.187.249.374.249.562 0 .25-.063.436-.25.624zm3.683-4.931h1.06v6.117h-1.06zm15.79 2.372h-3.37v-2.372h-1.061v6.117h1.06V291.2h3.371v2.809h.999v-6.117h-.999zm3.744-2.372h1.062v6.117h-1.061z" fill="#00080f"/><path fill="#ff5f00" d="M171.725 271.602c-20.097-15.728-42.753-12.357-42.753-12.357-.562.873-1.061 1.622-1.061 1.622 24.029-2.746 39.257 9.3 42.94 11.921.312.25.811.187 1.06-.125.188-.374.126-.811-.186-1.06zm-44.688-12.232c-7.864.81-19.535 4.306-29.522 12.232.188-.125.375-.187.625-.125 0 0 .749.188 1.56.375 4.431-3.12 12.857-8.738 26.151-10.735 0-.062.624-.874 1.186-1.748z"/><path fill="#ffb300" d="M142.203 259.432c-4.244-6.18-6.865-14.168-6.865-23.093 0 3.807-.5 6.74-.75 8.176 1.624 8.925 5.68 14.667 5.68 14.667.874.125 1.935.25 1.935.25z"/><path fill="#ea001b" d="M135.338 236.339a.721.721 0 00-.75-.749.721.721 0 00-.748.749c0 22.469-16.914 40.194-35.763 35.138a.68.68 0 00-.874.562.68.68 0 00.562.874c20.035 5.243 37.573-13.294 37.573-36.574z"/><path fill="#ffb300" d="M143.389 261.055c6.865 8.612 16.227 12.732 25.964 10.672.25.187 1.06.75 1.435 1.061 0 0 .25.187.624.125-12.607 3.245-23.28-2.746-30.083-12.108.063 0 1.061.062 2.06.25z"/></g></svg>